<svg xmlns="http://www.w3.org/2000/svg" viewBox="0 0 32 32" fill="none" role="img" aria-label="TinyKit">
  <defs>
    <linearGradient id="i" x1="4" y1="0" x2="28" y2="32" gradientUnits="userSpaceOnUse">
      <stop stop-color="#5AC8FA"/>
      <stop offset="1" stop-color="#0071E3"/>
    </linearGradient>
  </defs>
  <rect width="32" height="32" rx="8" fill="url(#i)"/>
  <path fill="#fff" d="M7 14.5c0-.8.7-1.5 1.5-1.5h15c.8 0 1.5.7 1.5 1.5V23a2 2 0 0 1-2 2H9a2 2 0 0 1-2-2v-8.5Z"/>
  <path fill="#fff" opacity=".9" d="M8.5 13h15c.3 0 .6-.1.8-.3L21.4 8.6A1 1 0 0 0 20.6 8h-9.2a1 1 0 0 0-.8.4L7.7 12.7c.2.2.5.3.8.3Z"/>
  <rect x="12" y="6.5" width="2" height="8" rx="1" fill="#0071E3"/>
  <path fill="#0071E3" d="M18.2 7.2a2.1 2.1 0 0 1 3 3l-3.2 3.2-1.3-1.3 3.2-3.2a.4.4 0 0 0-.6-.6l-.6.6-1.1-1.1.6-.6Z"/>
  <rect x="14.5" y="20" width="3" height="2" rx=".7" fill="#0071E3"/>
</svg>
